# Blender v2.79 (sub 0) OBJ File: 'Spear.blend'
# www.blender.org
mtllib Spear_00001.mtl
o Cube.001_Cube.002
v -0.500000 -0.500000 6.748674
v -0.500000 0.500000 6.748674
v -0.500000 -0.500000 6.000000
v -0.500000 0.500000 6.000000
v 0.500000 -0.500000 6.748674
v 0.500000 0.500000 6.748674
v 0.500000 -0.500000 6.000000
v 0.500000 0.500000 6.000000
v 0.000000 0.000000 9.989210
vn -1.0000 0.0000 0.0000
vn 0.0000 0.0000 -1.0000
vn 1.0000 0.0000 0.0000
vn 0.0000 0.9883 0.1525
vn 0.0000 -1.0000 0.0000
vn 0.0000 1.0000 0.0000
vn 0.9883 0.0000 0.1525
vn -0.9883 0.0000 0.1525
vn 0.0000 -0.9883 0.1525
usemtl Material.002
s off
f 1//1 2//1 4//1 3//1
f 3//2 4//2 8//2 7//2
f 7//3 8//3 6//3 5//3
f 6//4 2//4 9//4
f 3//5 7//5 5//5 1//5
f 8//6 4//6 2//6 6//6
f 5//7 6//7 9//7
f 2//8 1//8 9//8
f 1//9 5//9 9//9
o Cube_Cube.001
v -0.500000 -0.500000 6.008993
v -0.500000 0.500000 6.008993
v -0.500000 -0.500000 -13.991007
v -0.500000 0.500000 -13.991007
v 0.500000 -0.500000 6.008993
v 0.500000 0.500000 6.008993
v 0.500000 -0.500000 -13.991007
v 0.500000 0.500000 -13.991007
vn -1.0000 0.0000 0.0000
vn 0.0000 0.0000 -1.0000
vn 1.0000 0.0000 0.0000
vn 0.0000 0.0000 1.0000
vn 0.0000 -1.0000 0.0000
vn 0.0000 1.0000 0.0000
usemtl Material.001
s off
f 10//10 11//10 13//10 12//10
f 12//11 13//11 17//11 16//11
f 16//12 17//12 15//12 14//12
f 14//13 15//13 11//13 10//13
f 12//14 16//14 14//14 10//14
f 17//15 13//15 11//15 15//15
