# Blender v2.79 (sub 0) OBJ File: 'Sword_00001.blend'
# www.blender.org
mtllib Sword_00001.mtl
o Cube.002_Cube.003
v -0.367468 -0.367468 -4.889266
v -0.367468 0.367468 -4.889266
v -0.367468 -0.367468 -8.889267
v -0.367468 0.367468 -8.889267
v 0.367468 -0.367468 -4.889266
v 0.367468 0.367468 -4.889266
v 0.367468 -0.367468 -8.889267
v 0.367468 0.367468 -8.889267
v -2.000000 -0.226591 -4.957955
v -2.000000 0.226591 -4.957955
v -2.000000 -0.500000 -5.849347
v -2.000000 0.500000 -5.849347
v 2.000000 -0.226591 -4.957955
v 2.000000 0.226591 -4.957955
v 2.000000 -0.500000 -5.849347
v 2.000000 0.500000 -5.849347
v 0.000000 -0.500000 -4.998013
v 0.000000 0.500000 -4.998013
v 0.000000 -0.226591 -4.106622
v 0.000000 0.226591 -4.106622
v -0.630301 -0.630301 -8.889267
v -0.630301 0.630301 -8.889267
v 0.630301 -0.630301 -8.889267
v 0.630301 0.630301 -8.889267
v -0.404133 -0.404133 -9.139280
v -0.404133 0.404133 -9.139280
v 0.404133 -0.404133 -9.139280
v 0.404133 0.404133 -9.139280
vn -1.0000 0.0000 0.0000
vn 0.0000 0.0000 1.0000
vn 1.0000 0.0000 0.0000
vn 0.0000 -1.0000 0.0000
vn 0.0000 1.0000 0.0000
vn -0.3917 0.0000 -0.9201
vn -0.3917 0.0000 0.9201
vn 0.1239 -0.9487 0.2910
vn -0.1239 0.9487 0.2910
vn 0.1239 0.9487 0.2910
vn -0.1239 -0.9487 0.2910
vn 0.3917 0.0000 0.9201
vn 0.3917 0.0000 -0.9201
vn 0.0000 0.7416 -0.6709
vn 0.0000 0.0000 -1.0000
vn -0.7416 0.0000 -0.6709
vn 0.7416 0.0000 -0.6709
vn 0.0000 -0.7416 -0.6709
usemtl Material.002
s off
f 1//1 2//1 4//1 3//1
f 8//2 7//2 23//2 24//2
f 7//3 8//3 6//3 5//3
f 5//2 6//2 2//2 1//2
f 3//4 7//4 5//4 1//4
f 8//5 4//5 2//5 6//5
f 9//1 10//1 12//1 11//1
f 17//6 18//6 16//6 15//6
f 15//3 16//3 14//3 13//3
f 19//7 20//7 10//7 9//7
f 17//8 15//8 13//8 19//8
f 18//9 12//9 10//9 20//9
f 16//10 18//10 20//10 14//10
f 11//11 17//11 19//11 9//11
f 13//12 14//12 20//12 19//12
f 11//13 12//13 18//13 17//13
f 22//14 24//14 28//14 26//14
f 7//2 3//2 21//2 23//2
f 4//2 8//2 24//2 22//2
f 3//2 4//2 22//2 21//2
f 25//15 26//15 28//15 27//15
f 21//16 22//16 26//16 25//16
f 24//17 23//17 27//17 28//17
f 23//18 21//18 25//18 27//18
o Cube_Cube.001
v -1.414214 0.000000 8.076019
v 0.000000 0.222737 8.076019
v -0.857213 0.000000 -4.962967
v 0.000000 0.135010 -4.962967
v 0.000000 -0.222737 8.076019
v 1.414214 0.000000 8.076019
v 0.000000 -0.135010 -4.962967
v 0.857213 0.000000 -4.962967
v 0.000000 0.000000 9.337039
vn -0.1556 0.9878 -0.0066
vn 0.0000 0.0000 -1.0000
vn 0.1556 -0.9878 -0.0066
vn -0.1533 0.9731 0.1719
vn -0.1556 -0.9878 -0.0066
vn 0.1556 0.9878 -0.0066
vn -0.1533 -0.9731 0.1719
vn 0.1533 0.9731 0.1719
vn 0.1533 -0.9731 0.1719
usemtl Material.001
s off
f 29//19 30//19 32//19 31//19
f 31//20 32//20 36//20 35//20
f 35//21 36//21 34//21 33//21
f 30//22 29//22 37//22
f 31//23 35//23 33//23 29//23
f 36//24 32//24 30//24 34//24
f 29//25 33//25 37//25
f 34//26 30//26 37//26
f 33//27 34//27 37//27
