# Blender v2.79 (sub 0) OBJ File: 'Battle_Axe_00001.blend'
# www.blender.org
mtllib Battle_Axe_00001.mtl
o Cube.001_Cube.003
v -2.666425 -0.340434 9.013164
v -2.666425 0.340434 9.013164
v -2.666425 -0.340434 4.986836
v -2.666425 0.340434 4.986836
v -0.509195 -0.500000 7.500000
v -0.509195 0.500000 7.500000
v -0.509195 -0.500000 6.500000
v -0.509195 0.500000 6.500000
v -1.120163 -0.340434 6.659566
v -1.120163 0.340434 6.659566
v -1.120163 -0.340434 7.340434
v -1.120163 0.340434 7.340434
v -5.492669 0.000000 7.000000
v 2.666420 0.340434 9.013164
v 2.666420 -0.340434 9.013164
v 2.666420 0.340434 4.986837
v 2.666420 -0.340434 4.986837
v 0.509190 0.500000 7.500000
v 0.509190 -0.500000 7.500000
v 0.509190 0.500000 6.500000
v 0.509190 -0.500000 6.500000
v 1.120158 0.340434 6.659566
v 1.120158 -0.340434 6.659566
v 1.120158 0.340434 7.340435
v 1.120158 -0.340434 7.340435
v 5.492664 -0.000000 7.000000
vn -0.5802 0.0000 -0.8145
vn -0.2527 0.0000 -0.9675
vn 1.0000 0.0000 0.0000
vn 0.7343 0.0000 0.6788
vn -0.2527 -0.9675 0.0000
vn 0.0000 1.0000 0.0000
vn -0.2527 0.9675 0.0000
vn 0.0000 -1.0000 0.0000
vn -0.2527 0.0000 0.9675
vn 0.7343 0.0000 -0.6788
vn -0.5802 0.0000 0.8145
vn -0.1196 0.9928 0.0000
vn -0.1196 -0.9928 0.0000
vn 0.5802 0.0000 -0.8145
vn 0.2527 0.0000 -0.9675
vn -1.0000 0.0000 0.0000
vn -0.7343 0.0000 0.6788
vn 0.2527 0.9675 0.0000
vn 0.2527 -0.9675 0.0000
vn 0.2527 0.0000 0.9675
vn -0.7343 0.0000 -0.6788
vn 0.5802 0.0000 0.8145
vn 0.1196 -0.9928 0.0000
vn 0.1196 0.9928 0.0000
usemtl Material.003
s off
f 4//1 3//1 13//1
f 9//2 10//2 8//2 7//2
f 7//3 8//3 6//3 5//3
f 11//4 12//4 2//4 1//4
f 9//5 7//5 5//5 11//5
f 10//6 4//6 2//6 12//6
f 8//7 10//7 12//7 6//7
f 3//8 9//8 11//8 1//8
f 5//9 6//9 12//9 11//9
f 3//10 4//10 10//10 9//10
f 1//11 2//11 13//11
f 2//12 4//12 13//12
f 3//13 1//13 13//13
f 17//14 16//14 26//14
f 22//15 23//15 21//15 20//15
f 20//16 21//16 19//16 18//16
f 24//17 25//17 15//17 14//17
f 22//18 20//18 18//18 24//18
f 23//8 17//8 15//8 25//8
f 21//19 23//19 25//19 19//19
f 16//6 22//6 24//6 14//6
f 18//20 19//20 25//20 24//20
f 16//21 17//21 23//21 22//21
f 14//22 15//22 26//22
f 15//23 17//23 26//23
f 16//24 14//24 26//24
o Cube_Cube.001
v -0.500000 -0.500000 7.982401
v -0.500000 0.500000 7.982401
v -0.500000 -0.500000 -7.561340
v -0.500000 0.500000 -7.561340
v 0.500000 -0.500000 7.982401
v 0.500000 0.500000 7.982401
v 0.500000 -0.500000 -7.561340
v 0.500000 0.500000 -7.561340
vn -1.0000 0.0000 0.0000
vn 0.0000 0.0000 -1.0000
vn 1.0000 0.0000 0.0000
vn 0.0000 0.0000 1.0000
vn 0.0000 -1.0000 0.0000
vn 0.0000 1.0000 0.0000
usemtl Material.001
s off
f 27//25 28//25 30//25 29//25
f 29//26 30//26 34//26 33//26
f 33//27 34//27 32//27 31//27
f 31//28 32//28 28//28 27//28
f 29//29 33//29 31//29 27//29
f 34//30 30//30 28//30 32//30
