# Blender v2.79 (sub 0) OBJ File: 'Claw_00001.blend'
# www.blender.org
mtllib Claw_00001.mtl
o Cube.004
v 0.500000 1.000000 -2.500000
v 0.500000 1.000000 -1.500000
v -0.500000 1.000000 -1.500000
v -0.500000 1.000000 -2.500000
v 0.500000 2.000000 -2.500000
v 0.500000 2.000000 -1.500000
v -0.500000 2.000000 -1.500000
v -0.500000 2.000000 -2.500000
v 0.500000 -2.000000 -2.500000
v 0.500000 -2.000000 -1.500000
v -0.500000 -2.000000 -1.500000
v -0.500000 -2.000000 -2.500000
v 0.500000 -1.000000 -2.500000
v 0.500000 -1.000000 -1.500000
v -0.500000 -1.000000 -1.500000
v -0.500000 -1.000000 -2.500000
v 0.500000 -0.500000 -2.500000
v 0.500000 -0.500000 -1.500000
v -0.500000 -0.500000 -1.500000
v -0.500000 -0.500000 -2.500000
v 0.500000 0.500000 -2.500000
v 0.500000 0.500000 -1.500000
v -0.500000 0.500000 -1.500000
v -0.500000 0.500000 -2.500000
v 0.000001 1.500001 -5.595508
v 0.000001 -1.500000 -5.595508
v 0.000001 0.000001 -5.595508
vn 0.0000 -1.0000 -0.0000
vn 0.0000 1.0000 0.0000
vn 1.0000 0.0000 0.0000
vn -0.0000 -0.0000 1.0000
vn -1.0000 -0.0000 -0.0000
vn 0.9872 -0.0000 -0.1595
vn 0.0000 -0.9872 -0.1595
vn -0.9872 -0.0000 -0.1595
vn 0.0000 0.9872 -0.1595
usemtl Material
s off
f 1//1 2//1 3//1 4//1
f 5//2 8//2 7//2 6//2
f 1//3 5//3 6//3 2//3
f 2//4 6//4 7//4 3//4
f 3//5 7//5 8//5 4//5
f 5//6 1//6 25//6
f 9//1 10//1 11//1 12//1
f 13//2 16//2 15//2 14//2
f 9//3 13//3 14//3 10//3
f 10//4 14//4 15//4 11//4
f 11//5 15//5 16//5 12//5
f 17//7 20//7 27//7
f 17//1 18//1 19//1 20//1
f 21//2 24//2 23//2 22//2
f 17//3 21//3 22//3 18//3
f 18//4 22//4 23//4 19//4
f 19//5 23//5 24//5 20//5
f 1//7 4//7 25//7
f 12//8 16//8 26//8
f 21//6 17//6 27//6
f 8//9 5//9 25//9
f 24//9 21//9 27//9
f 9//7 12//7 26//7
f 4//8 8//8 25//8
f 20//8 24//8 27//8
f 13//6 9//6 26//6
f 16//9 13//9 26//9
o Cube.002
v -0.500000 -2.000000 -0.500000
v -0.500000 2.000000 -0.500000
v -0.500000 -2.000000 -1.500000
v -0.500000 2.000000 -1.500000
v 0.500000 -2.000000 -0.500000
v 0.500000 2.000000 -0.500000
v 0.500000 -2.000000 -1.500000
v 0.500000 2.000000 -1.500000
v -0.500000 -1.000000 1.500000
v -0.500000 1.000000 1.500000
v -0.500000 -1.000000 0.500000
v -0.500000 1.000000 0.500000
v 0.500000 -1.000000 1.500000
v 0.500000 1.000000 1.500000
v 0.500000 -1.000000 0.500000
v 0.500000 1.000000 0.500000
v 0.500000 -0.500000 -0.500000
v 0.500000 -0.500000 0.500000
v -0.500000 -0.500000 0.500000
v -0.500000 -0.500000 -0.500000
v 0.500000 0.500000 -0.500000
v 0.500000 0.500000 0.500000
v -0.500000 0.500000 0.500000
v -0.500000 0.500000 -0.500000
vn -1.0000 0.0000 0.0000
vn 0.0000 0.0000 -1.0000
vn 1.0000 0.0000 0.0000
vn 0.0000 0.0000 1.0000
vn 0.0000 -1.0000 0.0000
vn 0.0000 1.0000 0.0000
usemtl Material.001
s off
f 28//10 29//10 31//10 30//10
f 30//11 31//11 35//11 34//11
f 34//12 35//12 33//12 32//12
f 32//13 33//13 29//13 28//13
f 30//14 34//14 32//14 28//14
f 35//15 31//15 29//15 33//15
f 36//10 37//10 39//10 38//10
f 38//11 39//11 43//11 42//11
f 42//12 43//12 41//12 40//12
f 40//13 41//13 37//13 36//13
f 38//14 42//14 40//14 36//14
f 43//15 39//15 37//15 41//15
f 44//14 45//14 46//14 47//14
f 48//15 51//15 50//15 49//15
f 44//12 48//12 49//12 45//12
f 45//13 49//13 50//13 46//13
f 46//10 50//10 51//10 47//10
f 48//11 44//11 47//11 51//11
