# Blender v2.81 (sub 16) OBJ File: 'Archery2.blend'
# www.blender.org
mtllib Quiver.mtl
o Quiver_Circle.008
v 0.024609 0.248323 0.037786
v 0.026491 0.359375 0.039264
v 0.058415 0.265134 0.044839
v 0.060297 0.376185 0.046316
v 0.024923 0.248337 0.036394
v 0.026805 0.359388 0.037871
v 0.015944 0.248516 0.034359
v 0.017826 0.359567 0.035837
v -0.017270 0.266643 0.027772
v -0.015388 0.377695 0.029249
v 0.015630 0.248503 0.035752
v 0.017512 0.359554 0.037229
v 0.014921 0.031140 0.028411
v 0.011578 0.031148 0.032034
v 0.013043 0.031061 0.036740
v 0.017851 0.030965 0.037824
v 0.021195 0.030956 0.034201
v 0.019730 0.031044 0.029495
v 0.020831 0.379876 0.033051
v 0.017487 0.379884 0.036674
v 0.018952 0.379797 0.041380
v 0.023760 0.379701 0.042464
v 0.027104 0.379692 0.038841
v 0.025639 0.379780 0.034135
v 0.006661 -0.456347 0.021925
v 0.003318 -0.456339 0.025548
v 0.004782 -0.456426 0.030254
v 0.009591 -0.456522 0.031338
v 0.012934 -0.456531 0.027715
v 0.011469 -0.456443 0.023009
v 0.005908 -0.458312 0.019588
v 0.000924 -0.458299 0.024989
v 0.003107 -0.458429 0.032005
v 0.010276 -0.458572 0.033621
v 0.015260 -0.458585 0.028220
v 0.013076 -0.458454 0.021204
v 0.007246 -0.508371 0.025940
v 0.022295 0.379788 0.037757
v -0.041784 0.249919 0.002464
v -0.039902 0.360970 0.003941
v -0.007900 0.266904 -0.003748
v -0.006018 0.377955 -0.002270
v -0.042023 0.249941 0.001056
v -0.040141 0.360992 0.002534
v -0.051101 0.250075 0.002592
v -0.049220 0.361126 0.004069
v -0.084393 0.268027 0.009268
v -0.082511 0.379078 0.010745
v -0.050862 0.250052 0.003999
v -0.048980 0.361103 0.005476
v -0.053487 0.032732 -0.004139
v -0.055201 0.032700 0.000483
v -0.052055 0.032596 0.004278
v -0.047196 0.032524 0.003450
v -0.045482 0.032557 -0.001172
v -0.048627 0.032661 -0.004966
v -0.047577 0.381468 0.000501
v -0.049291 0.381435 0.005123
v -0.046146 0.381332 0.008918
v -0.041287 0.381260 0.008090
v -0.039573 0.381293 0.003468
v -0.042718 0.381397 -0.000326
v -0.061747 -0.454755 -0.010625
v -0.063461 -0.454787 -0.006003
v -0.060315 -0.454891 -0.002208
v -0.055456 -0.454963 -0.003036
v -0.053742 -0.454930 -0.007658
v -0.056887 -0.454826 -0.011453
v -0.063325 -0.456711 -0.012514
v -0.065880 -0.456760 -0.005624
v -0.061191 -0.456914 0.000034
v -0.053946 -0.457021 -0.001200
v -0.051391 -0.456972 -0.008091
v -0.056080 -0.456818 -0.013748
v -0.059481 -0.506796 -0.007522
v -0.044432 0.381364 0.004296
v -0.047359 -0.537144 -0.037382
v -0.084694 -0.536699 -0.023266
v -0.106045 -0.536655 0.000611
v -0.105690 -0.537024 0.027851
v -0.083725 -0.537706 0.051154
v -0.046035 -0.538519 0.064276
v -0.002719 -0.539246 0.063702
v 0.034617 -0.539690 0.049586
v 0.055967 -0.539735 0.025709
v 0.055613 -0.539366 -0.001530
v 0.033648 -0.538684 -0.024833
v -0.004043 -0.537871 -0.037956
v -0.034738 0.207619 -0.027473
v -0.072073 0.208063 -0.013356
v -0.093424 0.208108 0.010520
v -0.093070 0.207739 0.037760
v -0.071104 0.207057 0.061063
v -0.033414 0.206244 0.074185
v 0.009902 0.205517 0.073611
v 0.047237 0.205072 0.059495
v 0.068588 0.205028 0.035618
v 0.068233 0.205397 0.008379
v 0.046268 0.206079 -0.014924
v 0.008578 0.206892 -0.028047
v -0.039661 -0.579896 -0.018889
v -0.062919 -0.579618 -0.010095
v -0.076220 -0.579591 0.004779
v -0.075999 -0.579820 0.021748
v -0.062316 -0.580245 0.036265
v -0.038836 -0.580752 0.044440
v -0.011852 -0.581205 0.044082
v 0.011406 -0.581482 0.035288
v 0.024707 -0.581509 0.020414
v 0.024486 -0.581280 0.003445
v 0.010803 -0.580855 -0.011072
v -0.012677 -0.580348 -0.019247
v -0.025848 -0.585979 0.012524
v -0.025848 -0.585979 0.012524
v -0.025848 -0.585979 0.012524
v -0.025848 -0.585979 0.012524
v -0.025848 -0.585979 0.012524
v -0.025848 -0.585979 0.012524
v -0.025848 -0.585979 0.012524
v -0.025848 -0.585979 0.012524
v -0.025848 -0.585979 0.012524
v -0.025848 -0.585979 0.012524
v -0.025848 -0.585979 0.012524
v -0.025848 -0.585979 0.012524
v -0.031717 0.207476 -0.020633
v -0.064000 0.207861 -0.008427
v -0.082461 0.207899 0.012219
v -0.082155 0.207581 0.035772
v -0.063162 0.206991 0.055921
v -0.030573 0.206287 0.067267
v 0.006881 0.205659 0.066771
v 0.039164 0.205275 0.054565
v 0.057625 0.205237 0.033920
v 0.057318 0.205555 0.010367
v 0.038326 0.206145 -0.009782
v 0.005737 0.206848 -0.021129
v -0.043977 -0.539462 -0.029670
v -0.075594 -0.539085 -0.017715
v -0.093674 -0.539048 0.002505
v -0.093374 -0.539360 0.025572
v -0.074773 -0.539938 0.045306
v -0.042856 -0.540626 0.056418
v -0.006174 -0.541242 0.055932
v 0.025443 -0.541618 0.043978
v 0.043524 -0.541656 0.023758
v 0.043223 -0.541344 0.000691
v 0.024622 -0.540766 -0.019043
v -0.007295 -0.540077 -0.030156
v -0.035800 -0.569757 -0.010404
v -0.052891 -0.569553 -0.003942
v -0.062666 -0.569533 0.006989
v -0.062503 -0.569701 0.019459
v -0.052448 -0.570014 0.030127
v -0.035194 -0.570386 0.036134
v -0.015364 -0.570719 0.035871
v 0.001728 -0.570922 0.029409
v 0.011502 -0.570942 0.018478
v 0.011340 -0.570774 0.006009
v 0.001284 -0.570461 -0.004659
v -0.015970 -0.570089 -0.010667
v -0.025582 -0.570238 0.012734
v -0.025582 -0.570238 0.012734
v -0.025582 -0.570238 0.012734
v -0.025582 -0.570238 0.012734
v -0.025582 -0.570238 0.012734
v -0.025582 -0.570238 0.012734
v -0.025582 -0.570238 0.012734
v -0.025582 -0.570238 0.012734
v -0.025582 -0.570238 0.012734
v -0.025582 -0.570238 0.012734
v -0.025582 -0.570238 0.012734
v -0.025582 -0.570238 0.012734
vt 0.924123 0.020120
vt 0.866832 0.006982
vt 0.866832 0.090504
vt 0.924123 0.103642
vt 0.866821 0.090504
vt 0.866821 0.006982
vt 0.924115 0.020120
vt 0.866825 0.006982
vt 0.866825 0.090504
vt 0.924115 0.103642
vt 0.866829 0.090504
vt 0.866829 0.006982
vt 0.948056 0.600485
vt 0.955953 0.600485
vt 0.955383 0.991439
vt 0.947499 0.991439
vt 0.940160 0.600484
vt 0.939614 0.991439
vt 0.955947 0.600486
vt 0.963844 0.600486
vt 0.963237 0.991442
vt 0.955340 0.991441
vt 0.948050 0.600486
vt 0.947455 0.991440
vt 0.940153 0.600485
vt 0.939571 0.991440
vt 0.963850 0.600485
vt 0.963268 0.991440
vt 0.947558 0.006239
vt 0.955441 0.006239
vt 0.939662 0.006239
vt 0.955392 0.006240
vt 0.963275 0.006239
vt 0.947509 0.006240
vt 0.939626 0.006240
vt 0.963323 0.006240
vt 0.904959 0.116902
vt 0.913204 0.117164
vt 0.913368 0.121064
vt 0.904391 0.120919
vt 0.919932 0.116978
vt 0.923991 0.121135
vt 0.876545 0.116458
vt 0.882808 0.116895
vt 0.882365 0.120744
vt 0.873301 0.121026
vt 0.889761 0.116921
vt 0.889756 0.120793
vt 0.897183 0.116726
vt 0.896891 0.120847
vt 0.897990 0.177760
vt 0.904591 0.186497
vt 0.904591 0.190130
vt 0.897610 0.188313
vt 0.897610 0.184680
vt 0.890629 0.186497
vt 0.890629 0.190130
vt 0.897610 0.191947
vt 0.924123 0.020120
vt 0.866832 0.006982
vt 0.866832 0.090504
vt 0.924123 0.103642
vt 0.866821 0.090504
vt 0.866821 0.006982
vt 0.924115 0.020120
vt 0.866825 0.006982
vt 0.866825 0.090504
vt 0.924115 0.103642
vt 0.866829 0.090504
vt 0.866829 0.006982
vt 0.948056 0.600485
vt 0.955953 0.600485
vt 0.955383 0.991439
vt 0.947499 0.991439
vt 0.940160 0.600484
vt 0.939614 0.991439
vt 0.955947 0.600486
vt 0.963844 0.600486
vt 0.963237 0.991442
vt 0.955340 0.991441
vt 0.948050 0.600486
vt 0.947455 0.991440
vt 0.940153 0.600485
vt 0.939571 0.991440
vt 0.963850 0.600485
vt 0.963268 0.991440
vt 0.947558 0.006239
vt 0.955441 0.006239
vt 0.939662 0.006239
vt 0.955392 0.006240
vt 0.963275 0.006239
vt 0.947509 0.006240
vt 0.939626 0.006240
vt 0.963323 0.006240
vt 0.904959 0.116902
vt 0.913204 0.117164
vt 0.913368 0.121064
vt 0.904391 0.120919
vt 0.919932 0.116978
vt 0.923991 0.121135
vt 0.876545 0.116458
vt 0.882808 0.116895
vt 0.882365 0.120744
vt 0.873301 0.121026
vt 0.889761 0.116921
vt 0.889756 0.120793
vt 0.897183 0.116726
vt 0.896891 0.120847
vt 0.897990 0.177760
vt 0.904591 0.186497
vt 0.904591 0.190130
vt 0.897610 0.188313
vt 0.897610 0.184680
vt 0.890629 0.186497
vt 0.890629 0.190130
vt 0.897610 0.191947
vt 0.673882 0.991283
vt 0.629447 0.991283
vt 0.629446 0.227284
vt 0.673881 0.227284
vt 0.714822 0.991283
vt 0.714819 0.227284
vt 0.747672 0.991283
vt 0.747670 0.227284
vt 0.555605 0.991281
vt 0.527664 0.991281
vt 0.527661 0.227282
vt 0.555603 0.227282
vt 0.588456 0.991281
vt 0.588454 0.227283
vt 0.629395 0.991281
vt 0.629393 0.227283
vt 0.673830 0.991280
vt 0.673827 0.227283
vt 0.714769 0.991280
vt 0.714766 0.227283
vt 0.747619 0.991280
vt 0.747617 0.227283
vt 0.555658 0.991283
vt 0.527717 0.991283
vt 0.527714 0.227284
vt 0.555656 0.227284
vt 0.588509 0.991283
vt 0.588507 0.227284
vt 0.488436 0.100039
vt 0.406862 0.100039
vt 0.427009 0.076399
vt 0.468289 0.076399
vt 0.336217 0.087216
vt 0.391261 0.069910
vt 0.295430 0.065005
vt 0.370621 0.058670
vt 0.295430 0.039357
vt 0.370621 0.045691
vt 0.336217 0.017146
vt 0.391261 0.034452
vt 0.406862 0.004322
vt 0.427009 0.027962
vt 0.488436 0.004322
vt 0.468289 0.027962
vt 0.559081 0.017145
vt 0.504038 0.034451
vt 0.599868 0.039357
vt 0.524678 0.045691
vt 0.599868 0.065004
vt 0.524678 0.058670
vt 0.559081 0.087216
vt 0.504038 0.069910
vt 0.447649 0.052181
vt 0.447649 0.052181
vt 0.447649 0.052181
vt 0.447649 0.052181
vt 0.447649 0.052181
vt 0.447649 0.052181
vt 0.447649 0.052181
vt 0.447649 0.052181
vt 0.447649 0.052181
vt 0.447649 0.052181
vt 0.447649 0.052181
vt 0.447649 0.052181
vt 0.410767 0.107428
vt 0.485828 0.107428
vt 0.481847 0.112100
vt 0.414748 0.112100
vt 0.345763 0.119228
vt 0.356640 0.122648
vt 0.308233 0.139666
vt 0.323090 0.140918
vt 0.308233 0.163266
vt 0.323090 0.162014
vt 0.345763 0.183704
vt 0.356640 0.180284
vt 0.410768 0.195504
vt 0.414749 0.190832
vt 0.485828 0.195504
vt 0.481847 0.190832
vt 0.550833 0.183704
vt 0.539957 0.180284
vt 0.588363 0.163266
vt 0.573506 0.162014
vt 0.588363 0.139666
vt 0.573506 0.140918
vt 0.550833 0.119228
vt 0.539956 0.122648
vt 0.374438 0.208685
vt 0.413590 0.208673
vt 0.413438 0.989461
vt 0.375095 0.989473
vt 0.338366 0.208713
vt 0.339767 0.989501
vt 0.309421 0.208756
vt 0.311419 0.989543
vt 0.478623 0.208705
vt 0.503242 0.208760
vt 0.501221 0.989548
vt 0.477111 0.989493
vt 0.449678 0.208680
vt 0.448763 0.989468
vt 0.413606 0.208674
vt 0.413435 0.989463
vt 0.374454 0.208686
vt 0.375091 0.989475
vt 0.338382 0.208713
vt 0.339764 0.989501
vt 0.309437 0.208755
vt 0.311416 0.989542
vt 0.478607 0.208702
vt 0.503227 0.208757
vt 0.501224 0.989544
vt 0.477114 0.989490
vt 0.449662 0.208677
vt 0.448767 0.989466
vt 0.415525 0.113291
vt 0.481027 0.113291
vt 0.463177 0.134236
vt 0.433375 0.134236
vt 0.358799 0.123588
vt 0.407567 0.138921
vt 0.326048 0.141423
vt 0.392666 0.147036
vt 0.326048 0.162018
vt 0.392666 0.156405
vt 0.358799 0.179853
vt 0.407567 0.164520
vt 0.415525 0.190150
vt 0.433376 0.169205
vt 0.481027 0.190150
vt 0.463177 0.169205
vt 0.537753 0.179853
vt 0.488986 0.164520
vt 0.570504 0.162017
vt 0.503886 0.156405
vt 0.570504 0.141423
vt 0.503886 0.147035
vt 0.537753 0.123588
vt 0.488986 0.138921
vt 0.448276 0.151720
vt 0.448276 0.151720
vt 0.448276 0.151720
vt 0.448276 0.151720
vt 0.448276 0.151720
vt 0.448276 0.151720
vt 0.448276 0.151720
vt 0.448276 0.151720
vt 0.448276 0.151720
vt 0.448276 0.151720
vt 0.448276 0.151720
vt 0.448276 0.151720
vn 0.2403 0.0088 -0.9707
vn -0.1996 -0.0097 0.9798
vn -0.2403 -0.0088 0.9707
vn 0.1996 0.0097 -0.9798
vn 0.2200 0.0093 -0.9755
vn 0.9547 -0.0122 -0.2974
vn 0.7347 -0.0215 0.6781
vn -0.2200 -0.0093 0.9755
vn -0.9547 0.0122 0.2974
vn -0.7347 0.0215 -0.6781
vn 0.1644 0.7283 -0.6652
vn 0.6727 0.7134 -0.1961
vn 0.5205 0.7070 0.4787
vn -0.1400 0.7155 0.6844
vn -0.6482 0.7303 0.2153
vn -0.4960 0.7367 -0.4595
vn 0.2161 -0.1172 -0.9693
vn 0.9449 -0.1385 -0.2967
vn 0.7266 -0.1477 0.6710
vn -0.2204 -0.1356 0.9659
vn -0.9492 -0.1143 0.2933
vn -0.7309 -0.1051 -0.6743
vn 0.0169 0.9998 0.0133
vn -0.1470 0.0156 -0.9890
vn 0.1882 -0.0163 0.9820
vn 0.1470 -0.0156 0.9890
vn -0.1882 0.0163 -0.9820
vn -0.1676 0.0160 -0.9857
vn 0.7698 -0.0046 -0.6382
vn 0.9375 -0.0205 0.3475
vn 0.1676 -0.0160 0.9857
vn -0.7698 0.0046 0.6382
vn -0.9375 0.0205 -0.3475
vn -0.1037 0.7329 -0.6723
vn 0.5448 0.7187 -0.4319
vn 0.6608 0.7077 0.2500
vn 0.1282 0.7109 0.6915
vn -0.5204 0.7250 0.4511
vn -0.6363 0.7361 -0.2308
vn -0.1684 -0.1106 -0.9795
vn 0.7615 -0.1309 -0.6348
vn 0.9278 -0.1467 0.3430
vn 0.1641 -0.1422 0.9761
vn -0.7658 -0.1219 0.6314
vn -0.9321 -0.1061 -0.3464
vn 0.0170 0.9998 0.0133
vn -0.0130 0.0135 -0.9998
vn 0.3289 0.0070 -0.9443
vn 0.7276 -0.0032 -0.6860
vn 0.9998 -0.0168 -0.0132
vn 0.7452 -0.0215 0.6664
vn 0.3534 -0.0184 0.9353
vn 0.0130 -0.0135 0.9998
vn -0.3289 -0.0070 0.9443
vn -0.7276 0.0032 0.6860
vn -0.9998 0.0168 0.0132
vn -0.7452 0.0215 -0.6664
vn -0.3534 0.0184 -0.9353
vn -0.0188 -0.3998 -0.9164
vn 0.2878 -0.4344 -0.8535
vn 0.6118 -0.5246 -0.5920
vn 0.8016 -0.5975 -0.0185
vn 0.6268 -0.5402 0.5615
vn 0.3098 -0.4572 0.8337
vn 0.0049 -0.4244 0.9054
vn -0.3027 -0.4470 0.8418
vn -0.6295 -0.5191 0.5781
vn -0.8214 -0.5703 0.0030
vn -0.6445 -0.5035 -0.5754
vn -0.3247 -0.4242 -0.8454
vn -0.0189 -0.9831 -0.1821
vn 0.0346 -0.9864 -0.1605
vn 0.0747 -0.9922 -0.0995
vn 0.0903 -0.9958 -0.0146
vn 0.0769 -0.9945 0.0706
vn 0.0384 -0.9904 0.1328
vn -0.0145 -0.9877 0.1558
vn -0.0681 -0.9886 0.1342
vn -0.1083 -0.9914 0.0731
vn -0.1240 -0.9922 -0.0118
vn -0.1105 -0.9891 -0.0970
vn -0.0719 -0.9846 -0.1591
vn 0.0130 -0.0123 0.9998
vn -0.3289 -0.0057 0.9443
vn -0.7276 0.0048 0.6860
vn -0.9997 0.0187 0.0133
vn -0.7452 0.0231 -0.6664
vn -0.3534 0.0197 -0.9353
vn -0.0130 0.0147 -0.9998
vn 0.3290 0.0083 -0.9443
vn 0.7277 -0.0016 -0.6859
vn 0.9998 -0.0148 -0.0132
vn 0.7453 -0.0199 0.6665
vn 0.3534 -0.0171 0.9353
vn 0.0202 0.5404 0.8412
vn -0.2573 0.5775 0.7748
vn -0.5309 0.6691 0.5200
vn -0.6765 0.7362 0.0188
vn -0.5440 0.6828 -0.4877
vn -0.2772 0.5981 -0.7519
vn -0.0015 0.5629 -0.8265
vn 0.2771 0.5888 -0.7593
vn 0.5535 0.6643 -0.5023
vn 0.7010 0.7131 0.0005
vn 0.5666 0.6507 0.5055
vn 0.2969 0.5682 0.7674
usemtl bowArrowQuiver
s 1
f 3/1/1 5/2/1 6/3/1 4/4/1
f 3/1/2 4/4/2 2/5/2 1/6/2
f 9/7/3 11/8/3 12/9/3 10/10/3
f 9/7/4 10/10/4 8/11/4 7/12/4
f 18/13/5 13/14/5 19/15/5 24/16/5
f 17/17/6 18/13/6 24/16/6 23/18/6
f 16/19/7 17/20/7 23/21/7 22/22/7
f 15/23/8 16/19/8 22/22/8 21/24/8
f 14/25/9 15/23/9 21/24/9 20/26/9
f 13/14/10 14/27/10 20/28/10 19/15/10
f 13/14/5 18/13/5 30/29/5 25/30/5
f 18/13/6 17/17/6 29/31/6 30/29/6
f 17/20/7 16/19/7 28/32/7 29/33/7
f 16/19/8 15/23/8 27/34/8 28/32/8
f 15/23/9 14/25/9 26/35/9 27/34/9
f 14/27/10 13/14/10 25/30/10 26/36/10
f 25/37/11 30/38/11 36/39/11 31/40/11
f 30/38/12 29/41/12 35/42/12 36/39/12
f 29/43/13 28/44/13 34/45/13 35/46/13
f 28/44/14 27/47/14 33/48/14 34/45/14
f 27/47/15 26/49/15 32/50/15 33/48/15
f 26/49/16 25/37/16 31/40/16 32/50/16
f 31/40/17 36/39/17 37/51/17
f 36/39/18 35/42/18 37/51/18
f 35/46/19 34/45/19 37/51/19
f 34/45/20 33/48/20 37/51/20
f 33/48/21 32/50/21 37/51/21
f 32/50/22 31/40/22 37/51/22
f 24/52/23 19/53/23 38/54/23
f 23/55/23 24/52/23 38/54/23
f 22/56/23 23/55/23 38/54/23
f 21/57/23 22/56/23 38/54/23
f 20/58/23 21/57/23 38/54/23
f 19/53/23 20/58/23 38/54/23
f 41/59/24 43/60/24 44/61/24 42/62/24
f 41/59/25 42/62/25 40/63/25 39/64/25
f 47/65/26 49/66/26 50/67/26 48/68/26
f 47/65/27 48/68/27 46/69/27 45/70/27
f 56/71/28 51/72/28 57/73/28 62/74/28
f 55/75/29 56/71/29 62/74/29 61/76/29
f 54/77/30 55/78/30 61/79/30 60/80/30
f 53/81/31 54/77/31 60/80/31 59/82/31
f 52/83/32 53/81/32 59/82/32 58/84/32
f 51/72/33 52/85/33 58/86/33 57/73/33
f 51/72/28 56/71/28 68/87/28 63/88/28
f 56/71/29 55/75/29 67/89/29 68/87/29
f 55/78/30 54/77/30 66/90/30 67/91/30
f 54/77/31 53/81/31 65/92/31 66/90/31
f 53/81/32 52/83/32 64/93/32 65/92/32
f 52/85/33 51/72/33 63/88/33 64/94/33
f 63/95/34 68/96/34 74/97/34 69/98/34
f 68/96/35 67/99/35 73/100/35 74/97/35
f 67/101/36 66/102/36 72/103/36 73/104/36
f 66/102/37 65/105/37 71/106/37 72/103/37
f 65/105/38 64/107/38 70/108/38 71/106/38
f 64/107/39 63/95/39 69/98/39 70/108/39
f 69/98/40 74/97/40 75/109/40
f 74/97/41 73/100/41 75/109/41
f 73/104/42 72/103/42 75/109/42
f 72/103/43 71/106/43 75/109/43
f 71/106/44 70/108/44 75/109/44
f 70/108/45 69/98/45 75/109/45
f 62/110/23 57/111/23 76/112/23
f 61/113/23 62/110/23 76/112/23
f 60/114/23 61/113/23 76/112/23
f 59/115/23 60/114/23 76/112/23
f 58/116/46 59/115/23 76/112/23
f 57/111/23 58/116/46 76/112/23
f 88/117/47 77/118/47 89/119/47 100/120/47
f 87/121/48 88/117/48 100/120/48 99/122/48
f 86/123/49 87/121/49 99/122/49 98/124/49
f 85/125/50 86/126/50 98/127/50 97/128/50
f 84/129/51 85/125/51 97/128/51 96/130/51
f 83/131/52 84/129/52 96/130/52 95/132/52
f 82/133/53 83/131/53 95/132/53 94/134/53
f 81/135/54 82/133/54 94/134/54 93/136/54
f 80/137/55 81/135/55 93/136/55 92/138/55
f 79/139/56 80/140/56 92/141/56 91/142/56
f 78/143/57 79/139/57 91/142/57 90/144/57
f 77/118/58 78/143/58 90/144/58 89/119/58
f 77/145/59 88/146/59 112/147/59 101/148/59
f 88/146/60 87/149/60 111/150/60 112/147/60
f 87/149/61 86/151/61 110/152/61 111/150/61
f 86/151/62 85/153/62 109/154/62 110/152/62
f 85/153/63 84/155/63 108/156/63 109/154/63
f 84/155/64 83/157/64 107/158/64 108/156/64
f 83/157/65 82/159/65 106/160/65 107/158/65
f 82/159/66 81/161/66 105/162/66 106/160/66
f 81/161/67 80/163/67 104/164/67 105/162/67
f 80/163/68 79/165/68 103/166/68 104/164/68
f 79/165/69 78/167/69 102/168/69 103/166/69
f 78/167/70 77/145/70 101/148/70 102/168/70
f 101/148/71 112/147/71 124/169/71 113/170/71
f 112/147/72 111/150/72 123/171/72 124/169/72
f 111/150/73 110/152/73 122/172/73 123/171/73
f 110/152/74 109/154/74 121/173/74 122/172/74
f 109/154/75 108/156/75 120/174/75 121/173/75
f 108/156/76 107/158/76 119/175/76 120/174/76
f 107/158/77 106/160/77 118/176/77 119/175/77
f 106/160/78 105/162/78 117/177/78 118/176/78
f 105/162/79 104/164/79 116/178/79 117/177/79
f 104/164/80 103/166/80 115/179/80 116/178/80
f 103/166/81 102/168/81 114/180/81 115/179/81
f 102/168/82 101/148/82 113/170/82 114/180/82
f 100/181/23 89/182/23 125/183/23 136/184/23
f 99/185/23 100/181/23 136/184/23 135/186/23
f 98/187/23 99/185/23 135/186/23 134/188/23
f 97/189/23 98/187/23 134/188/23 133/190/23
f 96/191/23 97/189/23 133/190/23 132/192/23
f 95/193/23 96/191/23 132/192/23 131/194/23
f 94/195/23 95/193/23 131/194/23 130/196/23
f 93/197/23 94/195/23 130/196/23 129/198/23
f 92/199/23 93/197/23 129/198/23 128/200/23
f 91/201/23 92/199/23 128/200/23 127/202/23
f 90/203/23 91/201/23 127/202/23 126/204/23
f 89/182/23 90/203/23 126/204/23 125/183/23
f 136/205/83 125/206/83 137/207/83 148/208/83
f 135/209/84 136/205/84 148/208/84 147/210/84
f 134/211/85 135/209/85 147/210/85 146/212/85
f 133/213/86 134/214/86 146/215/86 145/216/86
f 132/217/87 133/213/87 145/216/87 144/218/87
f 131/219/88 132/217/88 144/218/88 143/220/88
f 130/221/89 131/219/89 143/220/89 142/222/89
f 129/223/90 130/221/90 142/222/90 141/224/90
f 128/225/91 129/223/91 141/224/91 140/226/91
f 127/227/92 128/228/92 140/229/92 139/230/92
f 126/231/93 127/227/93 139/230/93 138/232/93
f 125/206/94 126/231/94 138/232/94 137/207/94
f 148/233/95 137/234/95 149/235/95 160/236/95
f 147/237/96 148/233/96 160/236/96 159/238/96
f 146/239/97 147/237/97 159/238/97 158/240/97
f 145/241/98 146/239/98 158/240/98 157/242/98
f 144/243/99 145/241/99 157/242/99 156/244/99
f 143/245/100 144/243/100 156/244/100 155/246/100
f 142/247/101 143/245/101 155/246/101 154/248/101
f 141/249/102 142/247/102 154/248/102 153/250/102
f 140/251/103 141/249/103 153/250/103 152/252/103
f 139/253/104 140/251/104 152/252/104 151/254/104
f 138/255/105 139/253/105 151/254/105 150/256/105
f 137/234/106 138/255/106 150/256/106 149/235/106
f 160/236/23 149/235/23 161/257/23 172/258/23
f 159/238/23 160/236/23 172/258/23 171/259/23
f 158/240/23 159/238/23 171/259/23 170/260/23
f 157/242/23 158/240/23 170/260/23 169/261/23
f 156/244/23 157/242/23 169/261/23 168/262/23
f 155/246/23 156/244/23 168/262/23 167/263/23
f 154/248/23 155/246/23 167/263/23 166/264/23
f 153/250/23 154/248/23 166/264/23 165/265/23
f 152/252/23 153/250/23 165/265/23 164/266/23
f 151/254/23 152/252/23 164/266/23 163/267/23
f 150/256/23 151/254/23 163/267/23 162/268/23
f 149/235/23 150/256/23 162/268/23 161/257/23
