# Blender v2.79 (sub 0) OBJ File: 'Sword_00003.blend'
# www.blender.org
mtllib Sword_00003.mtl
o Cube.001
v -2.000000 -0.250000 0.500000
v -2.000000 0.250000 0.500000
v -2.000000 -0.250000 -0.500000
v -2.000000 0.250000 -0.500000
v 2.000000 -0.250000 0.500000
v 2.000000 0.250000 0.500000
v 2.000000 -0.250000 -0.500000
v 2.000000 0.250000 -0.500000
v -0.500000 -0.200000 -0.500000
v -0.500000 0.200000 -0.500000
v -0.500000 -0.200000 -4.500000
v -0.500000 0.200000 -4.500000
v 0.500000 -0.200000 -0.500000
v 0.500000 0.200000 -0.500000
v 0.500000 -0.200000 -4.500000
v 0.500000 0.200000 -4.500000
vn -1.0000 0.0000 0.0000
vn 0.0000 0.0000 -1.0000
vn 1.0000 0.0000 0.0000
vn 0.0000 0.0000 1.0000
vn 0.0000 -1.0000 0.0000
vn 0.0000 1.0000 0.0000
usemtl Material.001
s off
f 1//1 2//1 4//1 3//1
f 3//2 4//2 8//2 7//2
f 7//3 8//3 6//3 5//3
f 5//4 6//4 2//4 1//4
f 3//5 7//5 5//5 1//5
f 8//6 4//6 2//6 6//6
f 9//1 10//1 12//1 11//1
f 11//2 12//2 16//2 15//2
f 15//3 16//3 14//3 13//3
f 13//4 14//4 10//4 9//4
f 11//5 15//5 13//5 9//5
f 16//6 12//6 10//6 14//6
o Cube
v 0.000000 -0.233977 0.479983
v 0.000000 -0.233977 10.495391
v -1.414214 0.000000 10.495391
v -1.414213 -0.000000 0.479983
v 1.414214 -0.000000 0.479984
v 1.414213 0.000000 10.495392
v -0.000000 0.233977 10.495391
v 0.000000 0.233977 0.479983
v -0.000000 -0.497911 12.517997
v -3.009503 0.000001 12.517996
v 3.009501 0.000002 12.517998
v -0.000001 0.497914 12.517996
v -0.000001 0.000002 15.440084
vn -0.1632 -0.9866 0.0000
vn 0.1632 0.9866 -0.0000
vn 0.1632 -0.9866 0.0000
vn -0.1619 0.9785 -0.1277
vn -0.1632 0.9866 -0.0000
vn 0.0000 0.0000 -1.0000
vn 0.1610 0.9729 0.1658
vn 0.1619 -0.9785 -0.1277
vn -0.1619 -0.9785 -0.1277
vn 0.1619 0.9785 -0.1277
vn 0.1610 -0.9729 0.1658
vn -0.1610 0.9729 0.1658
vn -0.1610 -0.9729 0.1658
usemtl Material
s off
f 17//7 18//7 19//7 20//7
f 21//8 24//8 23//8 22//8
f 17//9 21//9 22//9 18//9
f 23//10 19//10 26//10 28//10
f 19//11 23//11 24//11 20//11
f 21//12 17//12 20//12 24//12
f 27//13 28//13 29//13
f 18//14 22//14 27//14 25//14
f 19//15 18//15 25//15 26//15
f 22//16 23//16 28//16 27//16
f 25//17 27//17 29//17
f 28//18 26//18 29//18
f 26//19 25//19 29//19
